<svg width="273" height="65" viewBox="0 0 273 65" fill="none" xmlns="http://www.w3.org/2000/svg">
<path fill-rule="evenodd" clip-rule="evenodd" d="M8.17006 65L10.8056 59L31.3123 59L31.3123 65L8.17006 65Z" fill="#491DCE"/>
<path fill-rule="evenodd" clip-rule="evenodd" d="M6.55332 53L27.1981 6L31.3124 6L31.3124 0L29.8336 -1.2928e-07L24.3124 -6.11959e-07L23.2802 -7.02189e-07L1.90735e-06 53L6.55332 53Z" fill="#491DCE"/>
<path d="M31.3123 53L13.3123 53L31.3124 12L31.3123 53Z" fill="#491DCE"/>
<rect x="31.3123" width="210" height="6" fill="#491DCE"/>
<rect width="210" height="41" transform="translate(31.3123 12)" fill="#491DCE"/>
<path d="M75.2874 20.1644L48.7132 30.3467C46.8996 31.0705 46.9101 32.0758 48.3804 32.5241L55.2031 34.6389L70.9888 24.7425C71.7352 24.2912 72.4171 24.534 71.8566 25.0284L59.0671 36.4975H59.0641L59.0671 36.499L58.5964 43.4868C59.2859 43.4868 59.5902 43.1725 59.9769 42.8017L63.2908 39.5997L70.1839 44.6589C71.4549 45.3544 72.3677 44.9969 72.6839 43.4898L77.2089 22.3C77.672 20.4548 76.4999 19.6193 75.2874 20.1644Z" fill="white"/>
<path d="M96.4029 38.32C91.4909 38.32 88.3069 35.968 88.3069 32.32C88.3069 28.624 91.3949 26.24 96.1469 26.24C100.499 26.24 103.459 28.08 103.651 30.768H99.6189C99.4109 30.064 98.0829 29.424 96.1789 29.424C93.7149 29.424 92.2589 30.64 92.2589 32.32C92.2589 34.128 93.8909 35.136 96.6269 35.136C97.9389 35.136 99.3949 34.96 100.627 34.48V33.92H95.8589V31.584H103.651V36.544C101.891 37.696 99.0589 38.32 96.4029 38.32ZM113.262 38.32C108.382 38.32 105.214 35.936 105.214 32.256C105.214 28.608 108.382 26.24 113.262 26.24C118.174 26.24 121.326 28.608 121.326 32.256C121.326 35.936 118.174 38.32 113.262 38.32ZM109.134 32.256C109.134 34 110.75 35.152 113.262 35.152C115.806 35.152 117.422 34 117.422 32.256C117.422 30.528 115.806 29.392 113.262 29.392C110.734 29.392 109.134 30.528 109.134 32.256ZM122.417 29.68V26.512H136.081V29.68H131.137V38H127.377V29.68H122.417ZM151.965 38.32C147.053 38.32 143.869 35.968 143.869 32.32C143.869 28.624 146.957 26.24 151.709 26.24C156.061 26.24 159.021 28.08 159.213 30.768H155.181C154.973 30.064 153.645 29.424 151.741 29.424C149.277 29.424 147.821 30.64 147.821 32.32C147.821 34.128 149.453 35.136 152.189 35.136C153.501 35.136 154.957 34.96 156.189 34.48V33.92H151.421V31.584H159.213V36.544C157.453 37.696 154.621 38.32 151.965 38.32ZM160.151 38L166.039 26.512H170.839L176.711 38H172.695L171.687 35.872H165.175L164.151 38H160.151ZM166.455 33.168H170.391L168.423 29.056L166.455 33.168ZM177.983 38V26.512H183.855L187.263 33.664L190.655 26.512H196.511V38H192.751V30.08L189.007 38H185.503L181.743 30.08V38H177.983ZM198.702 38V26.512H210.446V29.344H202.462V30.96H210.126V33.536H202.462V35.168H210.446V38H198.702ZM216.118 34.208C216.118 30.688 220.294 31.104 220.294 29.664C220.294 29.04 219.654 28.752 218.534 28.752C216.854 28.752 215.99 29.36 215.99 30.704H212.39C212.534 27.744 214.694 26.24 218.678 26.24C222.182 26.24 224.198 27.312 224.198 29.216C224.198 32.208 219.734 31.536 219.734 34.208H216.118ZM215.974 38V35.088H219.878V38H215.974Z" fill="white"/>
<rect x="31.3123" y="59" width="210" height="6" fill="#491DCE"/>
<path fill-rule="evenodd" clip-rule="evenodd" d="M264.455 0L261.819 6H241.312V0H264.455Z" fill="#491DCE"/>
<path fill-rule="evenodd" clip-rule="evenodd" d="M266.071 12L245.427 59H241.312V65H242.791H248.312H249.344L272.625 12H266.071Z" fill="#491DCE"/>
<path d="M241.312 12H259.312L241.312 53V12Z" fill="#491DCE"/>
</svg>
